<svg width="24" height="20" viewBox="0 0 24 20" fill="none" xmlns="http://www.w3.org/2000/svg">
<g clip-path="url(#clip0_1_130)">
<path d="M2.70867 2.96302C2.66369 1.67121 3.67018 0.47998 5.03063 0.47998H18.9711C20.3315 0.47998 21.338 1.67121 21.293 2.96302C21.2498 4.20393 21.3059 5.81139 21.7105 7.12206C22.1163 8.43679 22.8007 9.26781 23.9216 9.37459V10.5854C22.8007 10.6922 22.1163 11.5232 21.7105 12.8379C21.3059 14.1486 21.2498 15.756 21.293 16.997C21.338 18.2888 20.3315 19.48 18.9711 19.48H5.03063C3.67018 19.48 2.66369 18.2888 2.70872 16.997C2.75189 15.756 2.69577 14.1486 2.29119 12.8379C1.88539 11.5232 1.19934 10.6922 0.0784302 10.5854V9.37459C1.19929 9.26781 1.88539 8.43679 2.29119 7.12206C2.69577 5.81139 2.75189 4.20393 2.70867 2.96302Z" fill="url(#paint0_linear_1_130)"/>
<g filter="url(#filter0_d_1_130)">
<path d="M12.5171 15.0307C14.7196 15.0307 16.0469 13.9522 16.0469 12.1735C16.0469 10.8289 15.0998 9.85547 13.6937 9.70137V9.64535C14.7268 9.47728 15.5375 8.51788 15.5375 7.44643C15.5375 5.91977 14.3322 4.92529 12.4955 4.92529H8.36304V15.0307H12.5171ZM9.97012 6.20686H12.1081C13.2704 6.20686 13.9304 6.72508 13.9304 7.66348C13.9304 8.66494 13.1628 9.22516 11.7709 9.22516H9.97012V6.20686ZM9.97012 13.7492V10.4227H12.0937C13.6147 10.4227 14.4039 10.9829 14.4039 12.0754C14.4039 13.1679 13.6363 13.7492 12.187 13.7492H9.97012Z" fill="url(#paint1_linear_1_130)"/>
<path d="M12.5171 15.0307C14.7196 15.0307 16.0469 13.9522 16.0469 12.1735C16.0469 10.8289 15.0998 9.85547 13.6937 9.70137V9.64535C14.7268 9.47728 15.5375 8.51788 15.5375 7.44643C15.5375 5.91977 14.3322 4.92529 12.4955 4.92529H8.36304V15.0307H12.5171ZM9.97012 6.20686H12.1081C13.2704 6.20686 13.9304 6.72508 13.9304 7.66348C13.9304 8.66494 13.1628 9.22516 11.7709 9.22516H9.97012V6.20686ZM9.97012 13.7492V10.4227H12.0937C13.6147 10.4227 14.4039 10.9829 14.4039 12.0754C14.4039 13.1679 13.6363 13.7492 12.187 13.7492H9.97012Z" stroke="white" stroke-width="0.0465686"/>
</g>
</g>
<defs>
<filter id="filter0_d_1_130" x="7.59465" y="4.34315" width="9.2206" height="11.6422" filterUnits="userSpaceOnUse" color-interpolation-filters="sRGB">
<feFlood flood-opacity="0" result="BackgroundImageFix"/>
<feColorMatrix in="SourceAlpha" type="matrix" values="0 0 0 0 0 0 0 0 0 0 0 0 0 0 0 0 0 0 127 0" result="hardAlpha"/>
<feOffset dy="0.186275"/>
<feGaussianBlur stdDeviation="0.372549"/>
<feColorMatrix type="matrix" values="0 0 0 0 0 0 0 0 0 0 0 0 0 0 0 0 0 0 0.15 0"/>
<feBlend mode="normal" in2="BackgroundImageFix" result="effect1_dropShadow_1_130"/>
<feBlend mode="normal" in="SourceGraphic" in2="effect1_dropShadow_1_130" result="shape"/>
</filter>
<linearGradient id="paint0_linear_1_130" x1="3.62132" y1="0.982829" x2="24.4562" y2="17.5215" gradientUnits="userSpaceOnUse">
<stop stop-color="#9013FE"/>
<stop offset="1" stop-color="#6610F2"/>
</linearGradient>
<linearGradient id="paint1_linear_1_130" x1="9.08983" y1="5.59043" x2="13.747" y2="13.4667" gradientUnits="userSpaceOnUse">
<stop stop-color="white"/>
<stop offset="1" stop-color="#F1E5FC"/>
</linearGradient>
<clipPath id="clip0_1_130">
<rect width="23.8431" height="19" fill="white" transform="translate(0.0784302 0.47998)"/>
</clipPath>
</defs>
</svg>
