<svg width="40" height="33" viewBox="0 0 40 33" fill="none" xmlns="http://www.w3.org/2000/svg">
<path fill-rule="evenodd" clip-rule="evenodd" d="M8.30814 0.567795C6.02576 0.567795 4.33695 2.56542 4.41254 4.73186C4.48509 6.81322 4.39085 9.50881 3.7122 11.7071C3.03153 13.9119 1.88034 15.3085 0 15.4878V17.5122C1.88034 17.6915 3.03153 19.0881 3.7122 21.2929C4.39085 23.4912 4.48509 26.1868 4.41254 28.2681C4.33695 30.4342 6.02576 32.4322 8.30847 32.4322H31.6949C33.9773 32.4322 35.6658 30.4346 35.5902 28.2681C35.5176 26.1868 35.6119 23.4912 36.2905 21.2929C36.9715 19.0881 38.1197 17.6915 40 17.5122V15.4878C38.1197 15.3085 36.9715 13.9119 36.2905 11.7071C35.6119 9.50915 35.5176 6.81322 35.5902 4.73186C35.6658 2.56576 33.9773 0.567795 31.6949 0.567795H8.3078H8.30814ZM27.1186 20.1824C27.1186 23.1654 24.8936 24.9746 21.201 24.9746H14.9153C14.7354 24.9746 14.563 24.9031 14.4359 24.776C14.3087 24.6489 14.2373 24.4764 14.2373 24.2966V8.70339C14.2373 8.52358 14.3087 8.35114 14.4359 8.22399C14.563 8.09685 14.7354 8.02542 14.9153 8.02542H21.1651C24.2441 8.02542 26.2647 9.69322 26.2647 12.2539C26.2647 14.0512 24.9054 15.6603 23.1736 15.942V16.0359C25.5312 16.2946 27.1186 17.9271 27.1186 20.1824ZM20.5156 10.1746H16.9315V15.2369H19.9502C22.2837 15.2369 23.5705 14.2973 23.5705 12.6176C23.5705 11.0437 22.4641 10.1746 20.5156 10.1746ZM16.9315 17.2458V22.8247H20.6475C23.077 22.8247 24.3641 21.8498 24.3641 20.0176C24.3641 18.1851 23.041 17.2454 20.4912 17.2454L16.9315 17.2458Z" fill="black"/>
</svg>
